<svg style="position: absolute; width: 0; height: 0;" width="0" height="0" version="1.1" xmlns="http://www.w3.org/2000/svg" xmlns:xlink="http://www.w3.org/1999/xlink">
    <defs>
        <symbol id="icon-instagram" viewBox="0 0 32 32">
            <title>instagram</title>
            <path class="path1" d="M16 2.881c4.275 0 4.781 0.019 6.462 0.094 1.563 0.069 2.406 0.331 2.969 0.55 0.744 0.288 1.281 0.638 1.837 1.194 0.563 0.563 0.906 1.094 1.2 1.838 0.219 0.563 0.481 1.412 0.55 2.969 0.075 1.688 0.094 2.194 0.094 6.463s-0.019 4.781-0.094 6.463c-0.069 1.563-0.331 2.406-0.55 2.969-0.288 0.744-0.637 1.281-1.194 1.837-0.563 0.563-1.094 0.906-1.837 1.2-0.563 0.219-1.413 0.481-2.969 0.55-1.688 0.075-2.194 0.094-6.463 0.094s-4.781-0.019-6.463-0.094c-1.563-0.069-2.406-0.331-2.969-0.55-0.744-0.288-1.281-0.637-1.838-1.194-0.563-0.563-0.906-1.094-1.2-1.837-0.219-0.563-0.481-1.413-0.55-2.969-0.075-1.688-0.094-2.194-0.094-6.463s0.019-4.781 0.094-6.463c0.069-1.563 0.331-2.406 0.55-2.969 0.288-0.744 0.638-1.281 1.194-1.838 0.563-0.563 1.094-0.906 1.838-1.2 0.563-0.219 1.412-0.481 2.969-0.55 1.681-0.075 2.188-0.094 6.463-0.094zM16 0c-4.344 0-4.887 0.019-6.594 0.094-1.7 0.075-2.869 0.35-3.881 0.744-1.056 0.412-1.95 0.956-2.837 1.85-0.894 0.888-1.438 1.781-1.85 2.831-0.394 1.019-0.669 2.181-0.744 3.881-0.075 1.713-0.094 2.256-0.094 6.6s0.019 4.887 0.094 6.594c0.075 1.7 0.35 2.869 0.744 3.881 0.413 1.056 0.956 1.95 1.85 2.837 0.887 0.887 1.781 1.438 2.831 1.844 1.019 0.394 2.181 0.669 3.881 0.744 1.706 0.075 2.25 0.094 6.594 0.094s4.888-0.019 6.594-0.094c1.7-0.075 2.869-0.35 3.881-0.744 1.050-0.406 1.944-0.956 2.831-1.844s1.438-1.781 1.844-2.831c0.394-1.019 0.669-2.181 0.744-3.881 0.075-1.706 0.094-2.25 0.094-6.594s-0.019-4.887-0.094-6.594c-0.075-1.7-0.35-2.869-0.744-3.881-0.394-1.063-0.938-1.956-1.831-2.844-0.887-0.887-1.781-1.438-2.831-1.844-1.019-0.394-2.181-0.669-3.881-0.744-1.712-0.081-2.256-0.1-6.6-0.1v0z"></path>
            <path class="path2" d="M16 7.781c-4.537 0-8.219 3.681-8.219 8.219s3.681 8.219 8.219 8.219 8.219-3.681 8.219-8.219c0-4.537-3.681-8.219-8.219-8.219zM16 21.331c-2.944 0-5.331-2.387-5.331-5.331s2.387-5.331 5.331-5.331c2.944 0 5.331 2.387 5.331 5.331s-2.387 5.331-5.331 5.331z"></path>
            <path class="path3" d="M26.462 7.456c0 1.060-0.859 1.919-1.919 1.919s-1.919-0.859-1.919-1.919c0-1.060 0.859-1.919 1.919-1.919s1.919 0.859 1.919 1.919z"></path>
        </symbol>
        <symbol id="icon-email" viewBox="0 0 32 32">
            <title>email</title>
            <path class="path1" d="M28 5h-24c-2.209 0-4 1.792-4 4v13c0 2.209 1.791 4 4 4h24c2.209 0 4-1.791 4-4v-13c0-2.208-1.791-4-4-4zM2 10.25l6.999 5.25-6.999 5.25v-10.5zM30 22c0 1.104-0.898 2-2 2h-24c-1.103 0-2-0.896-2-2l7.832-5.875 4.368 3.277c0.533 0.398 1.166 0.6 1.8 0.6 0.633 0 1.266-0.201 1.799-0.6l4.369-3.277 7.832 5.875zM30 20.75l-7-5.25 7-5.25v10.5zM17.199 18.602c-0.349 0.262-0.763 0.4-1.199 0.4s-0.851-0.139-1.2-0.4l-12.8-9.602c0-1.103 0.897-2 2-2h24c1.102 0 2 0.897 2 2l-12.801 9.602z"></path>
        </symbol>
        <symbol id="icon-feed" viewBox="0 0 22 28">
            <title>feed</title>
            <path class="path1" d="M6 21q0 1.25-0.875 2.125t-2.125 0.875-2.125-0.875-0.875-2.125 0.875-2.125 2.125-0.875 2.125 0.875 0.875 2.125zM14 22.922q0.031 0.438-0.266 0.75-0.281 0.328-0.734 0.328h-2.109q-0.391 0-0.672-0.258t-0.313-0.648q-0.344-3.578-2.883-6.117t-6.117-2.883q-0.391-0.031-0.648-0.313t-0.258-0.672v-2.109q0-0.453 0.328-0.734 0.266-0.266 0.672-0.266h0.078q2.5 0.203 4.781 1.258t4.047 2.836q1.781 1.766 2.836 4.047t1.258 4.781zM22 22.953q0.031 0.422-0.281 0.734-0.281 0.313-0.719 0.313h-2.234q-0.406 0-0.695-0.273t-0.305-0.664q-0.187-3.359-1.578-6.383t-3.617-5.25-5.25-3.617-6.383-1.594q-0.391-0.016-0.664-0.305t-0.273-0.68v-2.234q0-0.438 0.313-0.719 0.281-0.281 0.688-0.281h0.047q4.094 0.203 7.836 1.875t6.648 4.594q2.922 2.906 4.594 6.648t1.875 7.836z"></path>
        </symbol>
        <symbol id="icon-facebook" viewBox="0 0 16 28">
            <title>facebook</title>
            <path class="path1" d="M14.984 0.187v4.125h-2.453q-1.344 0-1.813 0.562t-0.469 1.687v2.953h4.578l-0.609 4.625h-3.969v11.859h-4.781v-11.859h-3.984v-4.625h3.984v-3.406q0-2.906 1.625-4.508t4.328-1.602q2.297 0 3.563 0.187z"></path>
        </symbol>
        <symbol id="icon-linkedin" viewBox="0 0 24 28">
            <title>linkedin</title>
            <path class="path1" d="M5.453 9.766v15.484h-5.156v-15.484h5.156zM5.781 4.984q0.016 1.141-0.789 1.906t-2.117 0.766h-0.031q-1.281 0-2.063-0.766t-0.781-1.906q0-1.156 0.805-1.914t2.102-0.758 2.078 0.758 0.797 1.914zM24 16.375v8.875h-5.141v-8.281q0-1.641-0.633-2.57t-1.977-0.93q-0.984 0-1.648 0.539t-0.992 1.336q-0.172 0.469-0.172 1.266v8.641h-5.141q0.031-6.234 0.031-10.109t-0.016-4.625l-0.016-0.75h5.141v2.25h-0.031q0.313-0.5 0.641-0.875t0.883-0.812 1.359-0.68 1.789-0.242q2.672 0 4.297 1.773t1.625 5.195z"></path>
        </symbol>
        <symbol id="icon-codepen" viewBox="0 0 28 28">
            <title>codepen</title>
            <path class="path1" d="M3.375 18.266l9.422 6.281v-5.609l-5.219-3.484zM2.406 16.016l3.016-2.016-3.016-2.016v4.031zM15.203 24.547l9.422-6.281-4.203-2.812-5.219 3.484v5.609zM14 16.844l4.25-2.844-4.25-2.844-4.25 2.844zM7.578 12.547l5.219-3.484v-5.609l-9.422 6.281zM22.578 14l3.016 2.016v-4.031zM20.422 12.547l4.203-2.812-9.422-6.281v5.609zM28 9.734v8.531q0 0.641-0.531 1l-12.797 8.531q-0.328 0.203-0.672 0.203t-0.672-0.203l-12.797-8.531q-0.531-0.359-0.531-1v-8.531q0-0.641 0.531-1l12.797-8.531q0.328-0.203 0.672-0.203t0.672 0.203l12.797 8.531q0.531 0.359 0.531 1z"></path>
        </symbol>
        <symbol id="icon-medium" viewBox="0 0 28 28">
            <title>medium</title>
            <path class="path1" d="M9.328 6.578v18.328q0 0.391-0.195 0.664t-0.57 0.273q-0.266 0-0.516-0.125l-7.266-3.641q-0.328-0.156-0.555-0.523t-0.227-0.727v-17.813q0-0.313 0.156-0.531t0.453-0.219q0.219 0 0.688 0.234l7.984 4q0.047 0.047 0.047 0.078zM10.328 8.156l8.344 13.531-8.344-4.156v-9.375zM28 8.437v16.469q0 0.391-0.219 0.633t-0.594 0.242-0.734-0.203l-6.891-3.437zM27.953 6.563q0 0.047-4.008 6.555t-4.695 7.617l-6.094-9.906 5.063-8.234q0.266-0.438 0.812-0.438 0.219 0 0.406 0.094l8.453 4.219q0.063 0.031 0.063 0.094z"></path>
        </symbol>
        <symbol id="icon-github" viewBox="0 0 24 28">
            <title>github</title>
            <path class="path1" d="M12 2q3.266 0 6.023 1.609t4.367 4.367 1.609 6.023q0 3.922-2.289 7.055t-5.914 4.336q-0.422 0.078-0.625-0.109t-0.203-0.469q0-0.047 0.008-1.195t0.008-2.102q0-1.516-0.812-2.219 0.891-0.094 1.602-0.281t1.469-0.609 1.266-1.039 0.828-1.641 0.32-2.352q0-1.859-1.234-3.219 0.578-1.422-0.125-3.187-0.438-0.141-1.266 0.172t-1.437 0.688l-0.594 0.375q-1.453-0.406-3-0.406t-3 0.406q-0.25-0.172-0.664-0.422t-1.305-0.602-1.328-0.211q-0.703 1.766-0.125 3.187-1.234 1.359-1.234 3.219 0 1.328 0.32 2.344t0.82 1.641 1.258 1.047 1.469 0.609 1.602 0.281q-0.609 0.562-0.766 1.609-0.328 0.156-0.703 0.234t-0.891 0.078-1.023-0.336-0.867-0.977q-0.297-0.5-0.758-0.812t-0.773-0.375l-0.313-0.047q-0.328 0-0.453 0.070t-0.078 0.18 0.141 0.219 0.203 0.187l0.109 0.078q0.344 0.156 0.68 0.594t0.492 0.797l0.156 0.359q0.203 0.594 0.688 0.961t1.047 0.469 1.086 0.109 0.867-0.055l0.359-0.063q0 0.594 0.008 1.383t0.008 0.852q0 0.281-0.203 0.469t-0.625 0.109q-3.625-1.203-5.914-4.336t-2.289-7.055q0-3.266 1.609-6.023t4.367-4.367 6.023-1.609zM4.547 19.234q0.047-0.109-0.109-0.187-0.156-0.047-0.203 0.031-0.047 0.109 0.109 0.187 0.141 0.094 0.203-0.031zM5.031 19.766q0.109-0.078-0.031-0.25-0.156-0.141-0.25-0.047-0.109 0.078 0.031 0.25 0.156 0.156 0.25 0.047zM5.5 20.469q0.141-0.109 0-0.297-0.125-0.203-0.266-0.094-0.141 0.078 0 0.281t0.266 0.109zM6.156 21.125q0.125-0.125-0.063-0.297-0.187-0.187-0.313-0.047-0.141 0.125 0.063 0.297 0.187 0.187 0.313 0.047zM7.047 21.516q0.047-0.172-0.203-0.25-0.234-0.063-0.297 0.109t0.203 0.234q0.234 0.094 0.297-0.094zM8.031 21.594q0-0.203-0.266-0.172-0.25 0-0.25 0.172 0 0.203 0.266 0.172 0.25 0 0.25-0.172zM8.937 21.438q-0.031-0.172-0.281-0.141-0.25 0.047-0.219 0.234t0.281 0.125 0.219-0.219z"></path>
        </symbol>
        <symbol id="icon-twitter" viewBox="0 0 26 28">
            <title>twitter</title>
            <path class="path1" d="M25.312 6.375q-1.047 1.531-2.531 2.609 0.016 0.219 0.016 0.656 0 2.031-0.594 4.055t-1.805 3.883-2.883 3.289-4.031 2.281-5.047 0.852q-4.234 0-7.75-2.266 0.547 0.063 1.219 0.063 3.516 0 6.266-2.156-1.641-0.031-2.938-1.008t-1.781-2.492q0.516 0.078 0.953 0.078 0.672 0 1.328-0.172-1.75-0.359-2.898-1.742t-1.148-3.211v-0.063q1.062 0.594 2.281 0.641-1.031-0.688-1.641-1.797t-0.609-2.406q0-1.375 0.688-2.547 1.891 2.328 4.602 3.727t5.805 1.555q-0.125-0.594-0.125-1.156 0-2.094 1.477-3.57t3.57-1.477q2.188 0 3.687 1.594 1.703-0.328 3.203-1.219-0.578 1.797-2.219 2.781 1.453-0.156 2.906-0.781z"></path>
        </symbol>
    </defs>
</svg>
